<?xml version="1.0" encoding="UTF-8" standalone="no"?>
<!-- Created with Inkscape (http://www.inkscape.org/) -->

<svg
   version="1.1"
   id="svg3574"
   width="800"
   height="800"
   viewBox="0 0 800 800"
   sodipodi:docname="boy-surfboard-pdv.svg"
   inkscape:version="1.2 (dc2aedaf03, 2022-05-15)"
   xmlns:inkscape="http://www.inkscape.org/namespaces/inkscape"
   xmlns:sodipodi="http://sodipodi.sourceforge.net/DTD/sodipodi-0.dtd"
   xmlns="http://www.w3.org/2000/svg"
   xmlns:svg="http://www.w3.org/2000/svg">
  <defs
     id="defs3578">
    <clipPath
       clipPathUnits="userSpaceOnUse"
       id="clipPath3594">
      <path
         d="M 0,600 H 600 V 0 H 0 Z"
         id="path3592" />
    </clipPath>
  </defs>
  <sodipodi:namedview
     id="namedview3576"
     pagecolor="#ffffff"
     bordercolor="#000000"
     borderopacity="0.25"
     inkscape:showpageshadow="2"
     inkscape:pageopacity="0.0"
     inkscape:pagecheckerboard="0"
     inkscape:deskcolor="#d1d1d1"
     showgrid="false"
     inkscape:zoom="1.04625"
     inkscape:cx="400"
     inkscape:cy="400.4779"
     inkscape:window-width="1920"
     inkscape:window-height="1017"
     inkscape:window-x="-8"
     inkscape:window-y="-8"
     inkscape:window-maximized="1"
     inkscape:current-layer="g3582">
    <inkscape:page
       x="0"
       y="0"
       id="page3580"
       width="800"
       height="800" />
  </sodipodi:namedview>
  <g
     id="g3582"
     inkscape:groupmode="layer"
     inkscape:label="Page 1"
     transform="matrix(1.3333333,0,0,-1.3333333,0,800)">
    <g
       id="g3584"
       transform="translate(391.1836,344.7871)">
      <path
         d="m 0,0 -12.837,-30.941 -14.336,5.954 12.838,30.94 z"
         style="fill:#ffcc99;fill-opacity:1;fill-rule:evenodd;stroke:none"
         id="path3586" />
    </g>
    <g
       id="g3588">
      <g
         id="g3590"
         clip-path="url(#clipPath3594)">
        <g
           id="g3596"
           transform="translate(391.9131,346.5469)">
          <path
             d="m 0,0 -4.678,-11.279 c -5.438,0.297 -10.478,2.146 -14.686,5.109 l 5.03,12.123 z"
             style="fill:#f2bd88;fill-opacity:1;fill-rule:evenodd;stroke:none"
             id="path3598" />
        </g>
        <g
           id="g3600"
           transform="translate(136.8877,141.0488)">
          <path
             d="m 0,0 c -3.202,10.665 -5.757,21.544 -7.602,32.596 -8.527,51.033 -0.728,99.332 20.336,139.365 21.111,40.125 55.575,71.906 100.3,89.768 7.52,2.985 17.123,-1.095 21.448,-9.111 4.325,-8.019 1.735,-16.94 -5.783,-19.925 C 89.688,217.114 59.62,189.375 41.19,154.347 22.825,119.44 16.039,77.251 23.498,32.596 25.349,21.513 28.013,10.629 31.414,0 Z"
             style="fill:#3c7bba;fill-opacity:1;fill-rule:evenodd;stroke:none"
             id="path3602" />
        </g>
        <g
           id="g3604"
           transform="translate(142.0024,141.0488)">
          <path
             d="m 0,0 c -8.33,19.595 -14.453,40.137 -17.991,61.31 -8.525,51.033 -0.726,99.333 20.339,139.367 21.111,40.125 55.573,71.904 100.302,89.767 7.517,2.984 17.119,-1.094 21.446,-9.113 4.323,-8.017 1.735,-16.938 -5.785,-19.924 C 79.302,245.828 49.234,218.092 30.802,183.061 12.438,148.155 5.651,105.965 13.11,61.31 16.671,40 23.232,19.422 32.287,0 Z"
             style="fill:#5894d1;fill-opacity:1;fill-rule:evenodd;stroke:none"
             id="path3606" />
        </g>
        <g
           id="g3608"
           transform="translate(145.9863,141.0488)">
          <path
             d="m 0,0 c -15.255,27.461 -26.1,57.32 -31.317,88.551 -8.525,51.034 -0.726,99.332 20.337,139.366 21.111,40.125 55.573,71.906 100.301,89.768 7.519,2.986 17.122,-1.094 21.447,-9.114 4.326,-8.015 1.735,-16.936 -5.784,-19.924 C 65.975,273.068 35.907,245.332 17.476,210.302 -0.889,175.397 -7.677,133.206 -0.215,88.551 5.062,56.962 16.933,26.979 33.748,0 Z"
             style="fill:#3c7bba;fill-opacity:1;fill-rule:evenodd;stroke:none"
             id="path3610" />
        </g>
        <g
           id="g3612"
           transform="translate(152.2935,141.0488)">
          <path
             d="m 0,0 c -24.869,34.821 -42.38,74.775 -49.478,117.267 -8.525,51.032 -0.728,99.33 20.338,139.365 21.111,40.124 55.573,71.905 100.3,89.767 7.519,2.986 17.121,-1.094 21.446,-9.111 4.325,-8.019 1.736,-16.939 -5.783,-19.924 C 47.813,301.783 17.745,274.046 -0.685,239.018 -19.05,204.111 -25.837,161.92 -18.378,117.267 -11.142,73.957 8.483,33.658 36.261,0 Z"
             style="fill:#5894d1;fill-opacity:1;fill-rule:evenodd;stroke:none"
             id="path3614" />
        </g>
        <g
           id="g3616"
           transform="translate(161.6968,141.0488)">
          <path
             d="m 0,0 c -37.19,40.763 -63.619,91.307 -72.765,146.05 -8.525,51.034 -0.725,99.334 20.338,139.367 21.112,40.125 55.573,71.905 100.301,89.768 7.518,2.985 17.121,-1.095 21.447,-9.113 4.324,-8.016 1.736,-16.938 -5.785,-19.924 C 24.527,330.569 -5.54,302.831 -23.972,267.801 -42.337,232.897 -49.124,190.705 -41.663,146.05 -32.226,89.557 -1.705,38.191 40.493,0 Z"
             style="fill:#3c7bba;fill-opacity:1;fill-rule:evenodd;stroke:none"
             id="path3618" />
        </g>
        <g
           id="g3620"
           transform="translate(163.8657,141.0488)">
          <path
             d="m 0,0 c -50.288,44.077 -86.788,104.284 -97.878,170.667 -8.526,51.032 -0.728,99.332 20.337,139.366 21.111,40.125 55.574,71.905 100.3,89.768 7.52,2.986 17.122,-1.095 21.446,-9.113 4.326,-8.016 1.737,-16.937 -5.782,-19.924 C -0.587,355.185 -30.655,327.448 -49.085,292.418 -67.45,257.514 -74.237,215.321 -66.777,170.667 -56.925,111.697 -24.107,58.314 20.993,19.671 29.242,12.602 37.906,6.028 46.912,0 Z"
             style="fill:#5894d1;fill-opacity:1;fill-rule:evenodd;stroke:none"
             id="path3622" />
        </g>
        <g
           id="g3624"
           transform="translate(183.5659,137.9248)">
          <path
             d="m 0,0 -23.36,-6.579 h 5.54 c 10.834,0 19.836,-8.063 21.025,-18.833 l 0.383,-3.487 c 0.41,-3.715 2.358,-6.734 5.572,-8.639 3.215,-1.906 6.798,-2.165 10.254,-0.742 l 59.203,24.387 c 12.294,5.064 23.664,7.314 36.958,7.314 h 15.426 z"
             style="fill:#d65600;fill-opacity:1;fill-rule:evenodd;stroke:none"
             id="path3626" />
        </g>
        <g
           id="g3628"
           transform="translate(288.0171,260.0937)">
          <path
             d="m 0,0 c 6.845,0.027 12.415,-5.499 12.44,-12.344 0.028,-6.843 -5.498,-12.413 -12.342,-12.44 l -39.901,-0.243 c -6.2,-0.038 -11.874,-2.39 -16.161,-6.284 -4.294,-3.896 -7.188,-9.33 -7.828,-15.517 l -6.497,-62.879 c -0.697,-6.818 -6.79,-11.778 -13.606,-11.081 -6.817,0.698 -11.777,6.791 -11.08,13.607 l 6.495,62.879 c 1.294,12.522 7.136,23.499 15.798,31.361 8.668,7.865 20.17,12.621 32.781,12.697 z"
             style="fill:#ffcc99;fill-opacity:1;fill-rule:evenodd;stroke:none"
             id="path3630" />
        </g>
        <g
           id="g3632"
           transform="translate(388.7334,415.1279)">
          <path
             d="m 0,0 v 0 c 15.568,0 28.307,-12.738 28.307,-28.309 v -19.747 c 0,-15.57 -12.739,-28.309 -28.307,-28.309 -15.569,0 -28.308,12.739 -28.308,28.309 v 19.747 C -28.308,-12.738 -15.569,0 0,0"
             style="fill:#ffcc99;fill-opacity:1;fill-rule:evenodd;stroke:none"
             id="path3634" />
        </g>
        <g
           id="g3636"
           transform="translate(417.04,376.9453)">
          <path
             d="m 0,0 c -0.291,9.105 -1.882,17.343 -6.121,23.812 -9.353,-5.118 -21.917,-3.55 -36.535,2.305 -5.819,-6.009 -8.667,-15.605 -9.218,-27.978 -3.969,4.345 -4.331,-1.904 -4.74,-8.012 -7.65,-4.211 -17.235,-4.126 -28.833,0.441 8.231,3.144 14.924,9.249 17.444,23.37 -4.154,1.43 -6.268,5.155 -6.911,10.534 20.812,-2.969 38.291,39.414 63.854,13.495 C 2.323,38.43 9.057,16.148 0,0"
             style="fill:#ffcc00;fill-opacity:1;fill-rule:evenodd;stroke:none"
             id="path3638" />
        </g>
        <g
           id="g3640"
           transform="translate(251.2739,268.6865)">
          <path
             d="m 0,0 c -1.86,-3.858 -6.497,-5.476 -10.355,-3.614 -3.859,1.862 -5.477,6.499 -3.616,10.356 C -4.366,26.504 7.87,40.351 21.82,49.52 37.573,59.871 55.256,64.14 73.658,64.14 h 204.403 c 4.293,0 7.776,-3.481 7.776,-7.775 0,-4.295 -3.483,-7.774 -7.776,-7.774 H 73.658 C 58.074,48.591 43.264,45.082 30.324,36.58 18.657,28.912 8.306,17.09 0,0"
             style="fill:#ffcc99;fill-opacity:1;fill-rule:evenodd;stroke:none"
             id="path3642" />
        </g>
        <g
           id="g3644"
           transform="translate(382.1396,335.7637)">
          <path
             d="m 0,0 h 0.002 c 15.279,-6.378 22.562,-24.096 16.184,-39.376 l -26.286,-62.969 -55.561,23.193 26.285,62.968 C -32.997,-0.903 -15.279,6.379 0,0"
             style="fill:#ffcc99;fill-opacity:1;fill-rule:evenodd;stroke:none"
             id="path3646" />
        </g>
        <g
           id="g3648"
           transform="translate(316.4785,256.6104)">
          <path
             d="M 0,0 -35.654,15.119 -54.086,-23.062 -6.03,-44.293 c 19.85,-8.769 48.303,-6.339 61.591,21.101 z"
             style="fill:#cc3300;fill-opacity:1;fill-rule:evenodd;stroke:none"
             id="path3650" />
        </g>
        <g
           id="g3652"
           transform="translate(298.7622,217.4805)">
          <path
             d="m 0,0 11.686,-5.163 c 19.851,-8.769 48.303,-6.339 61.591,21.101 L 17.716,39.13 Z"
             style="fill:#b32d00;fill-opacity:1;fill-rule:evenodd;stroke:none"
             id="path3654" />
        </g>
        <g
           id="g3656"
           transform="translate(328.3506,235.0576)">
          <path
             d="m 0,0 c 4.105,5.474 11.872,6.584 17.349,2.478 5.473,-4.107 6.584,-11.874 2.477,-17.348 L 0.247,-40.874 -13.11,-90.721 c -1.771,-6.628 -8.581,-10.566 -15.209,-8.796 -6.63,1.772 -10.568,8.583 -8.798,15.211 l 13.961,52.1 0.029,-0.008 c 0.398,1.487 1.081,2.928 2.062,4.236 z"
             style="fill:#ffcc99;fill-opacity:1;fill-rule:evenodd;stroke:none"
             id="path3658" />
        </g>
        <g
           id="g3660"
           transform="translate(125.7837,147.8027)">
          <path
             d="m 0,0 h 422.152 c 4.527,0 8.229,-3.703 8.229,-8.228 V -8.23 c 0,-4.525 -3.702,-8.227 -8.229,-8.227 H 0 c -4.526,0 -8.23,3.702 -8.23,8.227 v 0.002 C -8.23,-3.703 -4.526,0 0,0"
             style="fill:#ff6600;fill-opacity:1;fill-rule:evenodd;stroke:none"
             id="path3662" />
        </g>
        <g
           id="g3664"
           transform="translate(347.6455,308.5908)">
          <path
             d="M 0,0 C 1.27,0 2.305,1.035 2.305,2.305 2.305,3.573 1.27,4.608 0,4.608 -1.268,4.608 -2.303,3.573 -2.303,2.305 -2.303,1.035 -1.268,0 0,0"
             style="fill:#ff9966;fill-opacity:1;fill-rule:evenodd;stroke:none"
             id="path3666" />
        </g>
        <g
           id="g3668"
           transform="translate(377.1055,302.3369)">
          <path
             d="M 0,0 C 1.27,0 2.305,1.035 2.305,2.304 2.305,3.573 1.27,4.606 0,4.606 -1.268,4.606 -2.303,3.573 -2.303,2.304 -2.303,1.035 -1.268,0 0,0"
             style="fill:#ff9966;fill-opacity:1;fill-rule:evenodd;stroke:none"
             id="path3670" />
        </g>
        <g
           id="g3672"
           transform="translate(339.582,259.877)">
          <path
             d="M 0,0 C 1.27,0 2.304,1.034 2.304,2.304 2.304,3.571 1.27,4.606 0,4.606 -1.27,4.606 -2.305,3.571 -2.305,2.304 -2.305,1.034 -1.27,0 0,0"
             style="fill:#ff9966;fill-opacity:1;fill-rule:evenodd;stroke:none"
             id="path3674" />
        </g>
      </g>
    </g>
  </g>
</svg>
